<svg width="29" height="29" viewBox="0 0 29 29" version="1.1" xmlns="http://www.w3.org/2000/svg" xmlns:xlink="http://www.w3.org/1999/xlink">
<title>reroute</title>
<desc>Created using Figma</desc>
<g id="Canvas" transform="translate(-590 -217)">
<g id="reroute" filter="url(#filter0_d)">
<g id="Ellipse">
<use xlink:href="#path0_fill" transform="translate(594 218)" fill="#4372B7"/>
</g>
<g id="Arrow">
<use xlink:href="#path1_stroke" transform="translate(598.198 224.63)" fill="#D2DFF9"/>
</g>
<g id="Arrow 2">
<use xlink:href="#path1_stroke" transform="matrix(-1 1.22465e-16 -1.22465e-16 -1 610.45 231.79)" fill="#D2DFF9"/>
</g>
</g>
</g>
<defs>
<filter id="filter0_d" filterUnits="userSpaceOnUse" x="590" y="217" width="29" height="29" color-interpolation-filters="sRGB">
<feFlood flood-opacity="0" result="BackgroundImageFix"/>
<feColorMatrix in="SourceAlpha" type="matrix" values="0 0 0 0 0 0 0 0 0 0 0 0 0 0 0 0 0 0 255 0"/>
<feOffset dx="0" dy="3"/>
<feGaussianBlur stdDeviation="2"/>
<feColorMatrix type="matrix" values="0 0 0 0 0.6 0 0 0 0 0.713726 0 0 0 0 0.94902 0 0 0 1 0"/>
<feBlend mode="normal" in2="BackgroundImageFix" result="effect1_dropShadow"/>
<feBlend mode="normal" in="SourceGraphic" in2="effect1_dropShadow" result="shape"/>
</filter>
<path id="path0_fill" d="M 21 10.5C 21 16.299 16.299 21 10.5 21C 4.70101 21 0 16.299 0 10.5C 0 4.70101 4.70101 0 10.5 0C 16.299 0 21 4.70101 21 10.5Z"/>
<path id="path1_stroke" d="M 12.6036 0.353553C 12.7988 0.158291 12.7988 -0.158291 12.6036 -0.353553L 9.42157 -3.53553C 9.22631 -3.7308 8.90973 -3.7308 8.71447 -3.53553C 8.5192 -3.34027 8.5192 -3.02369 8.71447 -2.82843L 11.5429 0L 8.71447 2.82843C 8.5192 3.02369 8.5192 3.34027 8.71447 3.53553C 8.90973 3.7308 9.22631 3.7308 9.42157 3.53553L 12.6036 0.353553ZM 0 0.5L 12.25 0.5L 12.25 -0.5L 0 -0.5L 0 0.5Z"/>
</defs>
</svg>
