<svg width="18" height="18" viewBox="0 0 18 18" version="1.1" xmlns="http://www.w3.org/2000/svg" xmlns:xlink="http://www.w3.org/1999/xlink">
<title>reroute</title>
<desc>Created using Figma</desc>
<g id="Canvas" transform="translate(-372 -155)">
<g id="reroute">
<g id="Ellipse">
<use xlink:href="#path0_fill" transform="translate(372 155)" fill="#4372B7"/>
</g>
<g id="Arrow">
<use xlink:href="#path1_stroke" transform="translate(375.598 160.683)" fill="#D2DFF9"/>
</g>
<g id="Arrow 2">
<use xlink:href="#path1_stroke" transform="matrix(-1 1.42875e-16 -1.0497e-16 -1 386.1 166.82)" fill="#D2DFF9"/>
</g>
</g>
</g>
<defs>
<path id="path0_fill" d="M 18 9C 18 13.9706 13.9706 18 9 18C 4.02944 18 0 13.9706 0 9C 0 4.02944 4.02944 0 9 0C 13.9706 0 18 4.02944 18 9Z"/>
<path id="path1_stroke" d="M 10.8536 0.353553C 11.0488 0.158291 11.0488 -0.158291 10.8536 -0.353553L 7.67157 -3.53553C 7.47631 -3.7308 7.15973 -3.7308 6.96447 -3.53553C 6.7692 -3.34027 6.7692 -3.02369 6.96447 -2.82843L 9.79289 0L 6.96447 2.82843C 6.7692 3.02369 6.7692 3.34027 6.96447 3.53553C 7.15973 3.7308 7.47631 3.7308 7.67157 3.53553L 10.8536 0.353553ZM 0 0.5L 10.5 0.5L 10.5 -0.5L 0 -0.5L 0 0.5Z"/>
</defs>
</svg>
